  0
SECTION
  2
HEADER
  9
$ACADVER
  1
AC1024
  9
$ACADMAINTVER
 70
6
  9
$DWGCODEPAGE
  3
ANSI_1252
  9
$LASTSAVEDBY
  1
ezdxf
  9
$INSBASE
 10
0.0
 20
0.0
 30
0.0
  9
$EXTMIN
 10
1e+20
 20
1e+20
 30
1e+20
  9
$EXTMAX
 10
-1e+20
 20
-1e+20
 30
-1e+20
  9
$LIMMIN
 10
0.0
 20
0.0
  9
$LIMMAX
 10
420.0
 20
297.0
  9
$ORTHOMODE
 70
0
  9
$REGENMODE
 70
1
  9
$FILLMODE
 70
1
  9
$QTEXTMODE
 70
0
  9
$MIRRTEXT
 70
1
  9
$LTSCALE
 40
1.0
  9
$ATTMODE
 70
1
  9
$TEXTSIZE
 40
2.5
  9
$TRACEWID
 40
1.0
  9
$TEXTSTYLE
  7
Standard
  9
$CLAYER
  8
0
  9
$CELTYPE
  6
ByLayer
  9
$CECOLOR
 62
256
  9
$CELTSCALE
 40
1.0
  9
$DISPSILH
 70
0
  9
$DIMSCALE
 40
1.0
  9
$DIMASZ
 40
2.5
  9
$DIMEXO
 40
0.625
  9
$DIMDLI
 40
3.75
  9
$DIMRND
 40
0.0
  9
$DIMDLE
 40
0.0
  9
$DIMEXE
 40
1.25
  9
$DIMTP
 40
0.0
  9
$DIMTM
 40
0.0
  9
$DIMTXT
 40
2.5
  9
$DIMCEN
 40
2.5
  9
$DIMTSZ
 40
0.0
  9
$DIMTOL
 70
0
  9
$DIMLIM
 70
0
  9
$DIMTIH
 70
0
  9
$DIMTOH
 70
0
  9
$DIMSE1
 70
0
  9
$DIMSE2
 70
0
  9
$DIMTAD
 70
1
  9
$DIMZIN
 70
8
  9
$DIMBLK
  1

  9
$DIMASO
 70
1
  9
$DIMSHO
 70
1
  9
$DIMPOST
  1

  9
$DIMAPOST
  1

  9
$DIMALT
 70
0
  9
$DIMALTD
 70
3
  9
$DIMALTF
 40
0.03937007874
  9
$DIMLFAC
 40
1.0
  9
$DIMTOFL
 70
1
  9
$DIMTVP
 40
0.0
  9
$DIMTIX
 70
0
  9
$DIMSOXD
 70
0
  9
$DIMSAH
 70
0
  9
$DIMBLK1
  1

  9
$DIMBLK2
  1

  9
$DIMSTYLE
  2
ISO-25
  9
$DIMCLRD
 70
0
  9
$DIMCLRE
 70
0
  9
$DIMCLRT
 70
0
  9
$DIMTFAC
 40
1.0
  9
$DIMGAP
 40
0.625
  9
$DIMJUST
 70
0
  9
$DIMSD1
 70
0
  9
$DIMSD2
 70
0
  9
$DIMTOLJ
 70
0
  9
$DIMTZIN
 70
8
  9
$DIMALTZ
 70
0
  9
$DIMALTTZ
 70
0
  9
$DIMUPT
 70
0
  9
$DIMDEC
 70
2
  9
$DIMTDEC
 70
2
  9
$DIMALTU
 70
2
  9
$DIMALTTD
 70
3
  9
$DIMTXSTY
  7
Standard
  9
$DIMAUNIT
 70
0
  9
$DIMADEC
 70
0
  9
$DIMALTRND
 40
0.0
  9
$DIMAZIN
 70
0
  9
$DIMDSEP
 70
44
  9
$DIMATFIT
 70
3
  9
$DIMFRAC
 70
0
  9
$DIMLDRBLK
  1

  9
$DIMLUNIT
 70
2
  9
$DIMLWD
 70
-2
  9
$DIMLWE
 70
-2
  9
$DIMTMOVE
 70
0
  9
$DIMFXL
 40
1.0
  9
$DIMFXLON
 70
0
  9
$DIMJOGANG
 40
0.785398163397
  9
$DIMTFILL
 70
0
  9
$DIMTFILLCLR
 70
0
  9
$DIMARCSYM
 70
0
  9
$DIMLTYPE
  6

  9
$DIMLTEX1
  6

  9
$DIMLTEX2
  6

  9
$DIMTXTDIRECTION
 70
0
  9
$LUNITS
 70
2
  9
$LUPREC
 70
4
  9
$SKETCHINC
 40
1.0
  9
$FILLETRAD
 40
10.0
  9
$AUNITS
 70
0
  9
$AUPREC
 70
2
  9
$MENU
  1
.
  9
$ELEVATION
 40
0.0
  9
$PELEVATION
 40
0.0
  9
$THICKNESS
 40
0.0
  9
$LIMCHECK
 70
0
  9
$CHAMFERA
 40
0.0
  9
$CHAMFERB
 40
0.0
  9
$CHAMFERC
 40
0.0
  9
$CHAMFERD
 40
0.0
  9
$SKPOLY
 70
0
  9
$TDCREATE
 40
2461225.868773148
  9
$TDUCREATE
 40
2458532.153996898
  9
$TDUPDATE
 40
2461225.868773148
  9
$TDUUPDATE
 40
2458532.1544311
  9
$TDINDWG
 40
0.0
  9
$TDUSRTIMER
 40
0.0
  9
$USRTIMER
 70
1
  9
$ANGBASE
 50
0.0
  9
$ANGDIR
 70
0
  9
$PDMODE
 70
0
  9
$PDSIZE
 40
0.0
  9
$PLINEWID
 40
0.0
  9
$SPLFRAME
 70
0
  9
$SPLINETYPE
 70
6
  9
$SPLINESEGS
 70
8
  9
$HANDSEED
  5
152
  9
$SURFTAB1
 70
6
  9
$SURFTAB2
 70
6
  9
$SURFTYPE
 70
6
  9
$SURFU
 70
6
  9
$SURFV
 70
6
  9
$UCSBASE
  2

  9
$UCSNAME
  2

  9
$UCSORG
 10
0.0
 20
0.0
 30
0.0
  9
$UCSXDIR
 10
1.0
 20
0.0
 30
0.0
  9
$UCSYDIR
 10
0.0
 20
1.0
 30
0.0
  9
$UCSORTHOREF
  2

  9
$UCSORTHOVIEW
 70
0
  9
$UCSORGTOP
 10
0.0
 20
0.0
 30
0.0
  9
$UCSORGBOTTOM
 10
0.0
 20
0.0
 30
0.0
  9
$UCSORGLEFT
 10
0.0
 20
0.0
 30
0.0
  9
$UCSORGRIGHT
 10
0.0
 20
0.0
 30
0.0
  9
$UCSORGFRONT
 10
0.0
 20
0.0
 30
0.0
  9
$UCSORGBACK
 10
0.0
 20
0.0
 30
0.0
  9
$PUCSBASE
  2

  9
$PUCSNAME
  2

  9
$PUCSORG
 10
0.0
 20
0.0
 30
0.0
  9
$PUCSXDIR
 10
1.0
 20
0.0
 30
0.0
  9
$PUCSYDIR
 10
0.0
 20
1.0
 30
0.0
  9
$PUCSORTHOREF
  2

  9
$PUCSORTHOVIEW
 70
0
  9
$PUCSORGTOP
 10
0.0
 20
0.0
 30
0.0
  9
$PUCSORGBOTTOM
 10
0.0
 20
0.0
 30
0.0
  9
$PUCSORGLEFT
 10
0.0
 20
0.0
 30
0.0
  9
$PUCSORGRIGHT
 10
0.0
 20
0.0
 30
0.0
  9
$PUCSORGFRONT
 10
0.0
 20
0.0
 30
0.0
  9
$PUCSORGBACK
 10
0.0
 20
0.0
 30
0.0
  9
$USERI1
 70
0
  9
$USERI2
 70
0
  9
$USERI3
 70
0
  9
$USERI4
 70
0
  9
$USERI5
 70
0
  9
$USERR1
 40
0.0
  9
$USERR2
 40
0.0
  9
$USERR3
 40
0.0
  9
$USERR4
 40
0.0
  9
$USERR5
 40
0.0
  9
$WORLDVIEW
 70
1
  9
$SHADEDGE
 70
3
  9
$SHADEDIF
 70
70
  9
$TILEMODE
 70
1
  9
$MAXACTVP
 70
64
  9
$PINSBASE
 10
0.0
 20
0.0
 30
0.0
  9
$PLIMCHECK
 70
0
  9
$PEXTMIN
 10
1e+20
 20
1e+20
 30
1e+20
  9
$PEXTMAX
 10
-1e+20
 20
-1e+20
 30
-1e+20
  9
$PLIMMIN
 10
0.0
 20
0.0
  9
$PLIMMAX
 10
420.0
 20
297.0
  9
$UNITMODE
 70
0
  9
$VISRETAIN
 70
1
  9
$PLINEGEN
 70
0
  9
$PSLTSCALE
 70
1
  9
$TREEDEPTH
 70
3020
  9
$CMLSTYLE
  2
Standard
  9
$CMLJUST
 70
0
  9
$CMLSCALE
 40
20.0
  9
$PROXYGRAPHICS
 70
1
  9
$MEASUREMENT
 70
1
  9
$CELWEIGHT
370
-1
  9
$ENDCAPS
280
0
  9
$JOINSTYLE
280
0
  9
$LWDISPLAY
290
0
  9
$INSUNITS
 70
6
  9
$HYPERLINKBASE
  1

  9
$STYLESHEET
  1

  9
$XEDIT
290
1
  9
$CEPSNTYPE
380
0
  9
$PSTYLEMODE
290
1
  9
$FINGERPRINTGUID
  2
{F4E1F84C-01BE-49B1-9A3A-77B8A8867D34}
  9
$VERSIONGUID
  2
{3F584C0B-D630-47F6-97A0-B92472668C9C}
  9
$EXTNAMES
290
1
  9
$PSVPSCALE
 40
0.0
  9
$OLESTARTUP
290
0
  9
$SORTENTS
280
127
  9
$INDEXCTL
280
0
  9
$HIDETEXT
280
1
  9
$XCLIPFRAME
280
1
  9
$HALOGAP
280
0
  9
$OBSCOLOR
 70
257
  9
$OBSLTYPE
280
0
  9
$INTERSECTIONDISPLAY
280
0
  9
$INTERSECTIONCOLOR
 70
257
  9
$DIMASSOC
280
2
  9
$PROJECTNAME
  1

  9
$CAMERADISPLAY
290
0
  9
$LENSLENGTH
 40
50.0
  9
$CAMERAHEIGHT
 40
0.0
  9
$STEPSPERSEC
 40
24.0
  9
$STEPSIZE
 40
100.0
  9
$3DDWFPREC
 40
2.0
  9
$PSOLWIDTH
 40
0.005
  9
$PSOLHEIGHT
 40
0.08
  9
$LOFTANG1
 40
1.570796326795
  9
$LOFTANG2
 40
1.570796326795
  9
$LOFTMAG1
 40
0.0
  9
$LOFTMAG2
 40
0.0
  9
$LOFTPARAM
 70
7
  9
$LOFTNORMALS
280
1
  9
$LATITUDE
 40
37.795
  9
$LONGITUDE
 40
-122.394
  9
$NORTHDIRECTION
 40
0.0
  9
$TIMEZONE
 70
-8000
  9
$LIGHTGLYPHDISPLAY
280
1
  9
$TILEMODELIGHTSYNCH
280
1
  9
$CMATERIAL
347
20
  9
$SOLIDHIST
280
0
  9
$SHOWHIST
280
1
  9
$DWFFRAME
280
2
  9
$DGNFRAME
280
2
  9
$REALWORLDSCALE
290
1
  9
$INTERFERECOLOR
 62
256
  9
$CSHADOW
280
0
  9
$SHADOWPLANELOCATION
 40
0.0
  0
ENDSEC
  0
SECTION
  2
CLASSES
  0
CLASS
  1
ACDBDICTIONARYWDFLT
  2
AcDbDictionaryWithDefault
  3
ObjectDBX Classes
 90
0
 91
0
280
0
281
0
  0
CLASS
  1
SUN
  2
AcDbSun
  3
SCENEOE
 90
1153
 91
0
280
0
281
0
  0
CLASS
  1
VISUALSTYLE
  2
AcDbVisualStyle
  3
ObjectDBX Classes
 90
4095
 91
0
280
0
281
0
  0
CLASS
  1
MATERIAL
  2
AcDbMaterial
  3
ObjectDBX Classes
 90
1153
 91
0
280
0
281
0
  0
CLASS
  1
SCALE
  2
AcDbScale
  3
ObjectDBX Classes
 90
1153
 91
0
280
0
281
0
  0
CLASS
  1
TABLESTYLE
  2
AcDbTableStyle
  3
ObjectDBX Classes
 90
4095
 91
0
280
0
281
0
  0
CLASS
  1
MLEADERSTYLE
  2
AcDbMLeaderStyle
  3
ACDB_MLEADERSTYLE_CLASS
 90
4095
 91
0
280
0
281
0
  0
CLASS
  1
DICTIONARYVAR
  2
AcDbDictionaryVar
  3
ObjectDBX Classes
 90
0
 91
0
280
0
281
0
  0
CLASS
  1
CELLSTYLEMAP
  2
AcDbCellStyleMap
  3
ObjectDBX Classes
 90
1152
 91
0
280
0
281
0
  0
CLASS
  1
MENTALRAYRENDERSETTINGS
  2
AcDbMentalRayRenderSettings
  3
SCENEOE
 90
1024
 91
0
280
0
281
0
  0
CLASS
  1
ACDBDETAILVIEWSTYLE
  2
AcDbDetailViewStyle
  3
ObjectDBX Classes
 90
1025
 91
0
280
0
281
0
  0
CLASS
  1
ACDBSECTIONVIEWSTYLE
  2
AcDbSectionViewStyle
  3
ObjectDBX Classes
 90
1025
 91
0
280
0
281
0
  0
CLASS
  1
RASTERVARIABLES
  2
AcDbRasterVariables
  3
ISM
 90
0
 91
0
280
0
281
0
  0
CLASS
  1
ACDBPLACEHOLDER
  2
AcDbPlaceHolder
  3
ObjectDBX Classes
 90
0
 91
0
280
0
281
0
  0
CLASS
  1
LAYOUT
  2
AcDbLayout
  3
ObjectDBX Classes
 90
0
 91
0
280
0
281
0
  0
ENDSEC
  0
SECTION
  2
TABLES
  0
TABLE
  2
VPORT
  5
8
330
0
100
AcDbSymbolTable
 70
1
  0
VPORT
  5
23
330
8
100
AcDbSymbolTableRecord
100
AcDbViewportTableRecord
  2
*Active
 70
0
 10
0.0
 20
0.0
 11
1.0
 21
1.0
 12
0.0
 22
0.0
 13
0.0
 23
0.0
 14
0.5
 24
0.5
 15
0.5
 25
0.5
 16
0.0
 26
0.0
 36
1.0
 17
0.0
 27
0.0
 37
0.0
 40
1000.0
 41
1.34
 42
50.0
 43
0.0
 44
0.0
 50
0.0
 51
0.0
 71
0
 72
1000
 73
1
 74
3
 75
0
 76
0
 77
0
 78
0
281
0
 65
0
146
0.0
  0
ENDTAB
  0
TABLE
  2
LTYPE
  5
2
330
0
100
AcDbSymbolTable
 70
3
  0
LTYPE
  5
24
330
2
100
AcDbSymbolTableRecord
100
AcDbLinetypeTableRecord
  2
ByBlock
 70
0
  3

 72
65
 73
0
 40
0.0
  0
LTYPE
  5
25
330
2
100
AcDbSymbolTableRecord
100
AcDbLinetypeTableRecord
  2
ByLayer
 70
0
  3

 72
65
 73
0
 40
0.0
  0
LTYPE
  5
26
330
2
100
AcDbSymbolTableRecord
100
AcDbLinetypeTableRecord
  2
Continuous
 70
0
  3

 72
65
 73
0
 40
0.0
  0
ENDTAB
  0
TABLE
  2
LAYER
  5
1
330
0
100
AcDbSymbolTable
 70
2
  0
LAYER
  5
27
330
1
100
AcDbSymbolTableRecord
100
AcDbLayerTableRecord
  2
0
 70
0
 62
7
  6
Continuous
370
-3
390
13
347
21
  0
LAYER
  5
28
330
1
100
AcDbSymbolTableRecord
100
AcDbLayerTableRecord
  2
Defpoints
 70
0
 62
7
  6
Continuous
290
0
370
-3
390
13
347
21
  0
ENDTAB
  0
TABLE
  2
STYLE
  5
5
330
0
100
AcDbSymbolTable
 70
1
  0
STYLE
  5
29
330
5
100
AcDbSymbolTableRecord
100
AcDbTextStyleTableRecord
  2
Standard
 70
0
 40
0.0
 41
1.0
 50
0.0
 71
0
 42
2.5
  3
txt
  4

  0
ENDTAB
  0
TABLE
  2
VIEW
  5
7
330
0
100
AcDbSymbolTable
 70
0
  0
ENDTAB
  0
TABLE
  2
UCS
  5
6
330
0
100
AcDbSymbolTable
 70
0
  0
ENDTAB
  0
TABLE
  2
APPID
  5
3
330
0
100
AcDbSymbolTable
 70
3
  0
APPID
  5
2A
330
3
100
AcDbSymbolTableRecord
100
AcDbRegAppTableRecord
  2
ACAD
 70
0
  0
APPID
  5
14F
330
3
100
AcDbSymbolTableRecord
100
AcDbRegAppTableRecord
  2
HATCHBACKGROUNDCOLOR
 70
0
  0
APPID
  5
150
330
3
100
AcDbSymbolTableRecord
100
AcDbRegAppTableRecord
  2
EZDXF
 70
0
  0
ENDTAB
  0
TABLE
  2
DIMSTYLE
  5
4
330
0
100
AcDbSymbolTable
 70
1
100
AcDbDimStyleTable
  0
DIMSTYLE
105
2B
330
4
100
AcDbSymbolTableRecord
100
AcDbDimStyleTableRecord
  2
Standard
 70
0
 40
1.0
 41
2.5
 42
0.625
 43
3.75
 44
1.25
 45
0.0
 46
0.0
 47
0.0
 48
0.0
 49
2.5
140
2.5
141
2.5
142
0.0
143
0.03937007874
144
1.0
145
0.0
146
1.0
147
0.625
148
0.0
 69
0
 70
0
 71
0
 72
0
 73
0
 74
0
 75
0
 76
0
 77
1
 78
8
 79
3
170
0
171
3
172
1
173
0
174
0
175
0
176
0
177
0
178
0
179
2
271
2
272
2
273
2
274
3
275
0
276
0
277
2
278
44
279
0
280
0
281
0
282
0
283
0
284
8
285
0
286
0
288
0
289
3
290
0
371
-2
372
-2
  0
ENDTAB
  0
TABLE
  2
BLOCK_RECORD
  5
9
330
0
100
AcDbSymbolTable
 70
2
  0
BLOCK_RECORD
  5
17
330
9
100
AcDbSymbolTableRecord
100
AcDbBlockTableRecord
  2
*Model_Space
340
1A
 70
0
280
1
281
0
  0
BLOCK_RECORD
  5
1B
330
9
100
AcDbSymbolTableRecord
100
AcDbBlockTableRecord
  2
*Paper_Space
340
1E
 70
0
280
1
281
0
  0
ENDTAB
  0
ENDSEC
  0
SECTION
  2
BLOCKS
  0
BLOCK
  5
18
330
17
100
AcDbEntity
  8
0
100
AcDbBlockBegin
  2
*Model_Space
 70
0
 10
0.0
 20
0.0
 30
0.0
  3
*Model_Space
  1

  0
ENDBLK
  5
19
330
17
100
AcDbEntity
  8
0
100
AcDbBlockEnd
  0
BLOCK
  5
1C
330
1B
100
AcDbEntity
  8
0
100
AcDbBlockBegin
  2
*Paper_Space
 70
0
 10
0.0
 20
0.0
 30
0.0
  3
*Paper_Space
  1

  0
ENDBLK
  5
1D
330
1B
100
AcDbEntity
  8
0
100
AcDbBlockEnd
  0
ENDSEC
  0
SECTION
  2
ENTITIES
  0
CIRCLE
  5
2F
330
17
100
AcDbEntity
  8
0
100
AcDbCircle
 10
-320.0
 20
36.0
 30
0.0
 40
92.04890004774636
  0
LWPOLYLINE
  5
30
330
17
100
AcDbEntity
  8
0
100
AcDbPolyline
 90
6
 70
0
 10
-456.0
 20
-60.0
 10
-429.0
 20
178.0
 10
-142.0
 20
171.0
 10
-130.0
 20
-57.0
 10
-384.0
 20
-131.0
 10
-455.6587490753679
 20
-60.49149338374293
  0
LWPOLYLINE
  5
31
330
17
100
AcDbEntity
  8
0
100
AcDbPolyline
 90
4
 70
1
 10
-560.7399999999997
 20
-165.31249999999991
 10
-66.12499999999997
 20
-165.31249999999991
 10
-66.12499999999997
 20
222.1799999999999
 10
-560.7399999999997
 20
222.1799999999999
  0
TEXT
  5
32
330
17
100
AcDbEntity
  8
0
100
AcDbText
 10
-341.2049999999998
 20
33.062499999999986
 30
0.0
 40
2.5
  1
hola
100
AcDbText
  0
DIMENSION
  5
33
330
17
100
AcDbEntity
  8
0
100
AcDbDimension
280
0
  3
Standard
 10
-560.7399999999997
 20
-224.82499999999987
 30
0.0
 70
32
 71
5
  1
<>
100
AcDbAlignedDimension
 13
-560.7399999999997
 23
-165.31249999999991
 33
0.0
 14
-63.47999999999997
 24
-165.31249999999991
 34
0.0
 50
0.0
100
AcDbRotatedDimension
  0
POINT
  5
34
330
17
100
AcDbEntity
  8
0
100
AcDbPoint
 10
-2.6449999999999987
 20
167.95749999999992
 30
0.0
  0
POINT
  5
35
330
17
100
AcDbEntity
  8
0
100
AcDbPoint
 10
18.51499999999999
 20
134.89499999999992
 30
0.0
  0
POINT
  5
36
330
17
100
AcDbEntity
  8
0
100
AcDbPoint
 10
-14.547499999999992
 20
63.47999999999997
 30
0.0
  0
POINT
  5
37
330
17
100
AcDbEntity
  8
0
100
AcDbPoint
 10
79.34999999999997
 20
40.99749999999998
 30
0.0
  0
LINE
  5
38
330
17
100
AcDbEntity
  8
0
100
AcDbLine
 10
-560.7399999999997
 20
-165.3124999999999
 30
0.0
 11
-173.24749999999972
 21
222.17999999999995
 31
0.0
  0
LINE
  5
39
330
17
100
AcDbEntity
  8
0
100
AcDbLine
 10
-560.7399999999998
 20
-163.89828643762684
 30
0.0
 11
-174.66171356237294
 21
222.17999999999995
 31
0.0
  0
LINE
  5
3A
330
17
100
AcDbEntity
  8
0
100
AcDbLine
 10
-560.7399999999996
 20
-162.48407287525362
 30
0.0
 11
-176.07592712474593
 21
222.17999999999995
 31
0.0
  0
LINE
  5
3B
330
17
100
AcDbEntity
  8
0
100
AcDbLine
 10
-560.7399999999997
 20
-161.06985931288057
 30
0.0
 11
-177.49014068711926
 21
222.17999999999984
 31
0.0
  0
LINE
  5
3C
330
17
100
AcDbEntity
  8
0
100
AcDbLine
 10
-560.7399999999996
 20
-159.65564575050752
 30
0.0
 11
-178.90435424949214
 21
222.17999999999984
 31
0.0
  0
LINE
  5
3D
330
17
100
AcDbEntity
  8
0
100
AcDbLine
 10
-560.7399999999997
 20
-158.24143218813435
 30
0.0
 11
-180.31856781186548
 21
222.17999999999984
 31
0.0
  0
LINE
  5
3E
330
17
100
AcDbEntity
  8
0
100
AcDbLine
 10
-560.7399999999996
 20
-156.8272186257613
 30
0.0
 11
-181.73278137423847
 21
222.17999999999984
 31
0.0
  0
LINE
  5
3F
330
17
100
AcDbEntity
  8
0
100
AcDbLine
 10
-560.7399999999998
 20
-155.4130050633882
 30
0.0
 11
-183.1469949366117
 21
222.17999999999984
 31
0.0
  0
LINE
  5
40
330
17
100
AcDbEntity
  8
0
100
AcDbLine
 10
-560.7399999999996
 20
-153.99879150101503
 30
0.0
 11
-184.56120849898457
 21
222.17999999999984
 31
0.0
  0
LINE
  5
41
330
17
100
AcDbEntity
  8
0
100
AcDbLine
 10
-560.7399999999996
 20
-152.58457793864198
 30
0.0
 11
-185.9754220613578
 21
222.17999999999984
 31
0.0
  0
LINE
  5
42
330
17
100
AcDbEntity
  8
0
100
AcDbLine
 10
-560.7399999999997
 20
-151.17036437626905
 30
0.0
 11
-187.38963562373078
 21
222.17999999999984
 31
0.0
  0
LINE
  5
43
330
17
100
AcDbEntity
  8
0
100
AcDbLine
 10
-560.7399999999996
 20
-149.75615081389589
 30
0.0
 11
-188.80384918610378
 21
222.17999999999995
 31
0.0
  0
LINE
  5
44
330
17
100
AcDbEntity
  8
0
100
AcDbLine
 10
-560.7399999999997
 20
-148.34193725152284
 30
0.0
 11
-190.2180627484771
 21
222.17999999999972
 31
0.0
  0
LINE
  5
45
330
17
100
AcDbEntity
  8
0
100
AcDbLine
 10
-560.7399999999997
 20
-146.92772368914973
 30
0.0
 11
-191.63227631084987
 21
222.17999999999995
 31
0.0
  0
LINE
  5
46
330
17
100
AcDbEntity
  8
0
100
AcDbLine
 10
-560.7399999999998
 20
-145.51351012677668
 30
0.0
 11
-193.0464898732232
 21
222.17999999999984
 31
0.0
  0
LINE
  5
47
330
17
100
AcDbEntity
  8
0
100
AcDbLine
 10
-560.7399999999996
 20
-144.0992965644034
 30
0.0
 11
-194.4607034355962
 21
222.17999999999984
 31
0.0
  0
LINE
  5
48
330
17
100
AcDbEntity
  8
0
100
AcDbLine
 10
-560.7399999999997
 20
-142.6850830020304
 30
0.0
 11
-195.87491699796942
 21
222.17999999999984
 31
0.0
  0
LINE
  5
49
330
17
100
AcDbEntity
  8
0
100
AcDbLine
 10
-560.7399999999998
 20
-141.27086943965736
 30
0.0
 11
-197.2891305603423
 21
222.17999999999995
 31
0.0
  0
LINE
  5
4A
330
17
100
AcDbEntity
  8
0
100
AcDbLine
 10
-560.7399999999997
 20
-139.8566558772842
 30
0.0
 11
-198.70334412271575
 21
222.17999999999972
 31
0.0
  0
LINE
  5
4B
330
17
100
AcDbEntity
  8
0
100
AcDbLine
 10
-560.7399999999996
 20
-138.44244231491103
 30
0.0
 11
-200.1175576850885
 21
222.17999999999995
 31
0.0
  0
LINE
  5
4C
330
17
100
AcDbEntity
  8
0
100
AcDbLine
 10
-560.7399999999997
 20
-137.02822875253798
 30
0.0
 11
-201.53177124746185
 21
222.17999999999984
 31
0.0
  0
LINE
  5
4D
330
17
100
AcDbEntity
  8
0
100
AcDbLine
 10
-560.7399999999997
 20
-135.61401519016488
 30
0.0
 11
-202.94598480983473
 21
222.17999999999995
 31
0.0
  0
LINE
  5
4E
330
17
100
AcDbEntity
  8
0
100
AcDbLine
 10
-560.7399999999998
 20
-134.19980162779183
 30
0.0
 11
-204.36019837220806
 21
222.17999999999984
 31
0.0
  0
LINE
  5
4F
330
17
100
AcDbEntity
  8
0
100
AcDbLine
 10
-560.7399999999997
 20
-132.78558806541878
 30
0.0
 11
-205.77441193458094
 21
222.17999999999984
 31
0.0
  0
LINE
  5
50
330
17
100
AcDbEntity
  8
0
100
AcDbLine
 10
-560.7399999999996
 20
-131.3713745030455
 30
0.0
 11
-207.18862549695427
 21
222.17999999999984
 31
0.0
  0
LINE
  5
51
330
17
100
AcDbEntity
  8
0
100
AcDbLine
 10
-560.7399999999996
 20
-129.9571609406725
 30
0.0
 11
-208.60283905932715
 21
222.17999999999984
 31
0.0
  0
LINE
  5
52
330
17
100
AcDbEntity
  8
0
100
AcDbLine
 10
-560.7399999999997
 20
-128.54294737829935
 30
0.0
 11
-210.0170526217005
 21
222.17999999999984
 31
0.0
  0
LINE
  5
53
330
17
100
AcDbEntity
  8
0
100
AcDbLine
 10
-560.7399999999996
 20
-127.1287338159263
 30
0.0
 11
-211.43126618407348
 21
222.17999999999972
 31
0.0
  0
LINE
  5
54
330
17
100
AcDbEntity
  8
0
100
AcDbLine
 10
-560.7399999999997
 20
-125.71452025355325
 30
0.0
 11
-212.84547974644647
 21
222.17999999999995
 31
0.0
  0
LINE
  5
55
330
17
100
AcDbEntity
  8
0
100
AcDbLine
 10
-560.7399999999996
 20
-124.30030669118014
 30
0.0
 11
-214.2596933088197
 21
222.17999999999984
 31
0.0
  0
LINE
  5
56
330
17
100
AcDbEntity
  8
0
100
AcDbLine
 10
-560.7399999999996
 20
-122.88609312880709
 30
0.0
 11
-215.67390687119257
 21
222.17999999999984
 31
0.0
  0
LINE
  5
57
330
17
100
AcDbEntity
  8
0
100
AcDbLine
 10
-560.7399999999997
 20
-121.47187956643404
 30
0.0
 11
-217.0881204335658
 21
222.17999999999984
 31
0.0
  0
LINE
  5
58
330
17
100
AcDbEntity
  8
0
100
AcDbLine
 10
-560.7399999999998
 20
-120.05766600406099
 30
0.0
 11
-218.50233399593878
 21
222.17999999999984
 31
0.0
  0
LINE
  5
59
330
17
100
AcDbEntity
  8
0
100
AcDbLine
 10
-560.7399999999997
 20
-118.64345244168783
 30
0.0
 11
-219.91654755831212
 21
222.17999999999972
 31
0.0
  0
LINE
  5
5A
330
17
100
AcDbEntity
  8
0
100
AcDbLine
 10
-560.7399999999996
 20
-117.22923887931466
 30
0.0
 11
-221.33076112068488
 21
222.17999999999995
 31
0.0
  0
LINE
  5
5B
330
17
100
AcDbEntity
  8
0
100
AcDbLine
 10
-560.7399999999998
 20
-115.81502531694167
 30
0.0
 11
-222.74497468305833
 21
222.17999999999972
 31
0.0
  0
LINE
  5
5C
330
17
100
AcDbEntity
  8
0
100
AcDbLine
 10
-560.7399999999997
 20
-114.40081175456851
 30
0.0
 11
-224.1591882454312
 21
222.17999999999984
 31
0.0
  0
LINE
  5
5D
330
17
100
AcDbEntity
  8
0
100
AcDbLine
 10
-560.7399999999996
 20
-112.98659819219534
 30
0.0
 11
-225.57340180780443
 21
222.17999999999984
 31
0.0
  0
LINE
  5
5E
330
17
100
AcDbEntity
  8
0
100
AcDbLine
 10
-560.7399999999997
 20
-111.5723846298223
 30
0.0
 11
-226.9876153701773
 21
222.17999999999995
 31
0.0
  0
LINE
  5
5F
330
17
100
AcDbEntity
  8
0
100
AcDbLine
 10
-560.7399999999997
 20
-110.15817106744919
 30
0.0
 11
-228.40182893255053
 21
222.17999999999995
 31
0.0
  0
LINE
  5
60
330
17
100
AcDbEntity
  8
0
100
AcDbLine
 10
-560.7399999999996
 20
-108.74395750507603
 30
0.0
 11
-229.81604249492352
 21
222.17999999999995
 31
0.0
  0
LINE
  5
61
330
17
100
AcDbEntity
  8
0
100
AcDbLine
 10
-560.7399999999997
 20
-107.32974394270298
 30
0.0
 11
-231.23025605729686
 21
222.17999999999984
 31
0.0
  0
LINE
  5
62
330
17
100
AcDbEntity
  8
0
100
AcDbLine
 10
-560.7399999999996
 20
-105.91553038032981
 30
0.0
 11
-232.64446961966974
 21
222.17999999999995
 31
0.0
  0
LINE
  5
63
330
17
100
AcDbEntity
  8
0
100
AcDbLine
 10
-560.7399999999997
 20
-104.50131681795676
 30
0.0
 11
-234.05868318204307
 21
222.17999999999984
 31
0.0
  0
LINE
  5
64
330
17
100
AcDbEntity
  8
0
100
AcDbLine
 10
-560.7399999999997
 20
-103.08710325558377
 30
0.0
 11
-235.47289674441595
 21
222.17999999999984
 31
0.0
  0
LINE
  5
65
330
17
100
AcDbEntity
  8
0
100
AcDbLine
 10
-560.7399999999996
 20
-101.6728896932105
 30
0.0
 11
-236.88711030678928
 21
222.17999999999984
 31
0.0
  0
LINE
  5
66
330
17
100
AcDbEntity
  8
0
100
AcDbLine
 10
-560.7399999999997
 20
-100.25867613083756
 30
0.0
 11
-238.30132386916216
 21
222.17999999999984
 31
0.0
  0
LINE
  5
67
330
17
100
AcDbEntity
  8
0
100
AcDbLine
 10
-560.7399999999998
 20
-98.8444625684644
 30
0.0
 11
-239.7155374315355
 21
222.17999999999984
 31
0.0
  0
LINE
  5
68
330
17
100
AcDbEntity
  8
0
100
AcDbLine
 10
-560.7399999999996
 20
-97.43024900609129
 30
0.0
 11
-241.12975099390837
 21
222.17999999999984
 31
0.0
  0
LINE
  5
69
330
17
100
AcDbEntity
  8
0
100
AcDbLine
 10
-560.7399999999997
 20
-96.01603544371824
 30
0.0
 11
-242.54396455628148
 21
222.17999999999995
 31
0.0
  0
LINE
  5
6A
330
17
100
AcDbEntity
  8
0
100
AcDbLine
 10
-560.7399999999998
 20
-94.6018218813453
 30
0.0
 11
-243.9581781186546
 21
222.17999999999984
 31
0.0
  0
LINE
  5
6B
330
17
100
AcDbEntity
  8
0
100
AcDbLine
 10
-560.7399999999996
 20
-93.18760831897202
 30
0.0
 11
-245.37239168102747
 21
222.17999999999995
 31
0.0
  0
LINE
  5
6C
330
17
100
AcDbEntity
  8
0
100
AcDbLine
 10
-560.7399999999996
 20
-91.77339475659898
 30
0.0
 11
-246.7866052434008
 21
222.17999999999984
 31
0.0
  0
LINE
  5
6D
330
17
100
AcDbEntity
  8
0
100
AcDbLine
 10
-560.7399999999997
 20
-90.35918119422598
 30
0.0
 11
-248.2008188057738
 21
222.17999999999984
 31
0.0
  0
LINE
  5
6E
330
17
100
AcDbEntity
  8
0
100
AcDbLine
 10
-560.7399999999997
 20
-88.94496763185282
 30
0.0
 11
-249.615032368147
 21
222.17999999999984
 31
0.0
  0
LINE
  5
6F
330
17
100
AcDbEntity
  8
0
100
AcDbLine
 10
-560.7399999999996
 20
-87.53075406947966
 30
0.0
 11
-251.0292459305199
 21
222.17999999999995
 31
0.0
  0
LINE
  5
70
330
17
100
AcDbEntity
  8
0
100
AcDbLine
 10
-560.7399999999997
 20
-86.1165405071066
 30
0.0
 11
-252.44345949289334
 21
222.17999999999972
 31
0.0
  0
LINE
  5
71
330
17
100
AcDbEntity
  8
0
100
AcDbLine
 10
-560.7399999999996
 20
-84.7023269447335
 30
0.0
 11
-253.8576730552661
 21
222.18000000000006
 31
0.0
  0
LINE
  5
72
330
17
100
AcDbEntity
  8
0
100
AcDbLine
 10
-560.7399999999998
 20
-83.28811338236045
 30
0.0
 11
-255.27188661763955
 21
222.17999999999972
 31
0.0
  0
LINE
  5
73
330
17
100
AcDbEntity
  8
0
100
AcDbLine
 10
-560.7399999999997
 20
-81.87389981998729
 30
0.0
 11
-256.6861001800123
 21
222.17999999999995
 31
0.0
  0
LINE
  5
74
330
17
100
AcDbEntity
  8
0
100
AcDbLine
 10
-560.7399999999998
 20
-80.45968625761424
 30
0.0
 11
-258.10031374238554
 21
222.17999999999995
 31
0.0
  0
LINE
  5
75
330
17
100
AcDbEntity
  8
0
100
AcDbLine
 10
-560.7399999999996
 20
-79.04547269524102
 30
0.0
 11
-259.51452730475853
 21
222.17999999999995
 31
0.0
  0
LINE
  5
76
330
17
100
AcDbEntity
  8
0
100
AcDbLine
 10
-560.7399999999997
 20
-77.63125913286797
 30
0.0
 11
-260.92874086713186
 21
222.17999999999984
 31
0.0
  0
LINE
  5
77
330
17
100
AcDbEntity
  8
0
100
AcDbLine
 10
-560.7399999999998
 20
-76.21704557049492
 30
0.0
 11
-262.34295442950474
 21
222.17999999999995
 31
0.0
  0
LINE
  5
78
330
17
100
AcDbEntity
  8
0
100
AcDbLine
 10
-560.7399999999997
 20
-74.80283200812175
 30
0.0
 11
-263.7571679918781
 21
222.17999999999984
 31
0.0
  0
LINE
  5
79
330
17
100
AcDbEntity
  8
0
100
AcDbLine
 10
-560.7399999999996
 20
-73.38861844574876
 30
0.0
 11
-265.17138155425107
 21
222.17999999999984
 31
0.0
  0
LINE
  5
7A
330
17
100
AcDbEntity
  8
0
100
AcDbLine
 10
-560.7399999999998
 20
-71.9744048833756
 30
0.0
 11
-266.5855951166243
 21
222.17999999999984
 31
0.0
  0
LINE
  5
7B
330
17
100
AcDbEntity
  8
0
100
AcDbLine
 10
-560.7399999999997
 20
-70.56019132100255
 30
0.0
 11
-267.99980867899717
 21
222.17999999999984
 31
0.0
  0
LINE
  5
7C
330
17
100
AcDbEntity
  8
0
100
AcDbLine
 10
-560.7399999999998
 20
-69.1459777586295
 30
0.0
 11
-269.4140222413704
 21
222.17999999999984
 31
0.0
  0
LINE
  5
7D
330
17
100
AcDbEntity
  8
0
100
AcDbLine
 10
-560.7399999999997
 20
-67.73176419625645
 30
0.0
 11
-270.8282358037434
 21
222.17999999999984
 31
0.0
  0
LINE
  5
7E
330
17
100
AcDbEntity
  8
0
100
AcDbLine
 10
-560.7399999999996
 20
-66.31755063388329
 30
0.0
 11
-272.2424493661164
 21
222.17999999999995
 31
0.0
  0
LINE
  5
7F
330
17
100
AcDbEntity
  8
0
100
AcDbLine
 10
-560.7399999999998
 20
-64.9033370715103
 30
0.0
 11
-273.6566629284897
 21
222.17999999999972
 31
0.0
  0
LINE
  5
80
330
17
100
AcDbEntity
  8
0
100
AcDbLine
 10
-560.7399999999997
 20
-63.48912350913713
 30
0.0
 11
-275.0708764908625
 21
222.17999999999995
 31
0.0
  0
LINE
  5
81
330
17
100
AcDbEntity
  8
0
100
AcDbLine
 10
-560.7399999999996
 20
-62.07490994676397
 30
0.0
 11
-276.4850900532358
 21
222.17999999999984
 31
0.0
  0
LINE
  5
82
330
17
100
AcDbEntity
  8
0
100
AcDbLine
 10
-560.7399999999997
 20
-60.66069638439092
 30
0.0
 11
-277.8993036156088
 21
222.17999999999984
 31
0.0
  0
LINE
  5
83
330
17
100
AcDbEntity
  8
0
100
AcDbLine
 10
-560.7399999999998
 20
-59.24648282201787
 30
0.0
 11
-279.313517177982
 21
222.17999999999984
 31
0.0
  0
LINE
  5
84
330
17
100
AcDbEntity
  8
0
100
AcDbLine
 10
-560.7399999999996
 20
-57.83226925964465
 30
0.0
 11
-280.7277307403549
 21
222.17999999999995
 31
0.0
  0
LINE
  5
85
330
17
100
AcDbEntity
  8
0
100
AcDbLine
 10
-560.7399999999997
 20
-56.4180556972716
 30
0.0
 11
-282.14194430272835
 21
222.17999999999972
 31
0.0
  0
LINE
  5
86
330
17
100
AcDbEntity
  8
0
100
AcDbLine
 10
-560.7399999999996
 20
-55.003842134898434
 30
0.0
 11
-283.5561578651011
 21
222.17999999999995
 31
0.0
  0
LINE
  5
87
330
17
100
AcDbEntity
  8
0
100
AcDbLine
 10
-560.7399999999997
 20
-53.589628572525385
 30
0.0
 11
-284.97037142747456
 21
222.17999999999972
 31
0.0
  0
LINE
  5
88
330
17
100
AcDbEntity
  8
0
100
AcDbLine
 10
-560.7399999999997
 20
-52.17541501015228
 30
0.0
 11
-286.38458498984744
 21
222.17999999999995
 31
0.0
  0
LINE
  5
89
330
17
100
AcDbEntity
  8
0
100
AcDbLine
 10
-560.7399999999998
 20
-50.76120144777923
 30
0.0
 11
-287.79879855222066
 21
222.17999999999984
 31
0.0
  0
LINE
  5
8A
330
17
100
AcDbEntity
  8
0
100
AcDbLine
 10
-560.7399999999996
 20
-49.34698788540595
 30
0.0
 11
-289.21301211459354
 21
222.17999999999995
 31
0.0
  0
LINE
  5
8B
330
17
100
AcDbEntity
  8
0
100
AcDbLine
 10
-560.7399999999997
 20
-47.93277432303296
 30
0.0
 11
-290.6272256769669
 21
222.17999999999984
 31
0.0
  0
LINE
  5
8C
330
17
100
AcDbEntity
  8
0
100
AcDbLine
 10
-560.7399999999997
 20
-46.51856076066002
 30
0.0
 11
-292.04143923933975
 21
222.17999999999984
 31
0.0
  0
LINE
  5
8D
330
17
100
AcDbEntity
  8
0
100
AcDbLine
 10
-560.7399999999997
 20
-45.104347198286746
 30
0.0
 11
-293.4556528017131
 21
222.17999999999984
 31
0.0
  0
LINE
  5
8E
330
17
100
AcDbEntity
  8
0
100
AcDbLine
 10
-560.7399999999996
 20
-43.690133635913696
 30
0.0
 11
-294.8698663640861
 21
222.17999999999984
 31
0.0
  0
LINE
  5
8F
330
17
100
AcDbEntity
  8
0
100
AcDbLine
 10
-560.7399999999997
 20
-42.27592007354053
 30
0.0
 11
-296.2840799264593
 21
222.17999999999984
 31
0.0
  0
LINE
  5
90
330
17
100
AcDbEntity
  8
0
100
AcDbLine
 10
-560.7399999999997
 20
-40.861706511167654
 30
0.0
 11
-297.6982934888322
 21
222.17999999999984
 31
0.0
  0
LINE
  5
91
330
17
100
AcDbEntity
  8
0
100
AcDbLine
 10
-560.7399999999997
 20
-39.447492948794434
 30
0.0
 11
-299.1125070512054
 21
222.17999999999984
 31
0.0
  0
LINE
  5
92
330
17
100
AcDbEntity
  8
0
100
AcDbLine
 10
-560.7399999999997
 20
-38.03327938642144
 30
0.0
 11
-300.5267206135784
 21
222.17999999999984
 31
0.0
  0
LINE
  5
93
330
17
100
AcDbEntity
  8
0
100
AcDbLine
 10
-560.7399999999996
 20
-36.619065824048334
 30
0.0
 11
-301.9409341759514
 21
222.17999999999984
 31
0.0
  0
LINE
  5
94
330
17
100
AcDbEntity
  8
0
100
AcDbLine
 10
-560.7399999999997
 20
-35.20485226167523
 30
0.0
 11
-303.3551477383247
 21
222.17999999999972
 31
0.0
  0
LINE
  5
95
330
17
100
AcDbEntity
  8
0
100
AcDbLine
 10
-560.7399999999997
 20
-33.79063869930212
 30
0.0
 11
-304.7693613006976
 21
222.17999999999995
 31
0.0
  0
LINE
  5
96
330
17
100
AcDbEntity
  8
0
100
AcDbLine
 10
-560.7399999999996
 20
-32.3764251369289
 30
0.0
 11
-306.18357486307093
 21
222.17999999999972
 31
0.0
  0
LINE
  5
97
330
17
100
AcDbEntity
  8
0
100
AcDbLine
 10
-560.7399999999997
 20
-30.96221157455591
 30
0.0
 11
-307.5977884254438
 21
222.17999999999984
 31
0.0
  0
LINE
  5
98
330
17
100
AcDbEntity
  8
0
100
AcDbLine
 10
-560.7399999999998
 20
-29.547998012182916
 30
0.0
 11
-309.01200198781703
 21
222.17999999999984
 31
0.0
  0
LINE
  5
99
330
17
100
AcDbEntity
  8
0
100
AcDbLine
 10
-560.7399999999996
 20
-28.133784449809582
 30
0.0
 11
-310.4262155501899
 21
222.17999999999995
 31
0.0
  0
LINE
  5
9A
330
17
100
AcDbEntity
  8
0
100
AcDbLine
 10
-560.7399999999997
 20
-26.71957088743659
 30
0.0
 11
-311.84042911256336
 21
222.17999999999972
 31
0.0
  0
LINE
  5
9B
330
17
100
AcDbEntity
  8
0
100
AcDbLine
 10
-560.7399999999997
 20
-25.305357325063483
 30
0.0
 11
-313.2546426749361
 21
222.17999999999995
 31
0.0
  0
LINE
  5
9C
330
17
100
AcDbEntity
  8
0
100
AcDbLine
 10
-560.7399999999997
 20
-23.891143762690376
 30
0.0
 11
-314.66885623730946
 21
222.17999999999984
 31
0.0
  0
LINE
  5
9D
330
17
100
AcDbEntity
  8
0
100
AcDbLine
 10
-560.7399999999997
 20
-22.47693020031727
 30
0.0
 11
-316.08306979968245
 21
222.17999999999995
 31
0.0
  0
LINE
  5
9E
330
17
100
AcDbEntity
  8
0
100
AcDbLine
 10
-560.7399999999997
 20
-21.062716637944163
 30
0.0
 11
-317.49728336205567
 21
222.17999999999984
 31
0.0
  0
LINE
  5
9F
330
17
100
AcDbEntity
  8
0
100
AcDbLine
 10
-560.7399999999997
 20
-19.648503075571057
 30
0.0
 11
-318.91149692442855
 21
222.17999999999995
 31
0.0
  0
LINE
  5
A0
330
17
100
AcDbEntity
  8
0
100
AcDbLine
 10
-560.7399999999997
 20
-18.23428951319795
 30
0.0
 11
-320.3257104868019
 21
222.17999999999984
 31
0.0
  0
LINE
  5
A1
330
17
100
AcDbEntity
  8
0
100
AcDbLine
 10
-560.7399999999997
 20
-16.820075950824958
 30
0.0
 11
-321.73992404917476
 21
222.17999999999984
 31
0.0
  0
LINE
  5
A2
330
17
100
AcDbEntity
  8
0
100
AcDbLine
 10
-560.7399999999997
 20
-15.405862388451737
 30
0.0
 11
-323.1541376115481
 21
222.17999999999984
 31
0.0
  0
LINE
  5
A3
330
17
100
AcDbEntity
  8
0
100
AcDbLine
 10
-560.7399999999996
 20
-13.991648826078631
 30
0.0
 11
-324.568351173921
 21
222.17999999999984
 31
0.0
  0
LINE
  5
A4
330
17
100
AcDbEntity
  8
0
100
AcDbLine
 10
-560.7399999999997
 20
-12.577435263705638
 30
0.0
 11
-325.9825647362941
 21
222.17999999999995
 31
0.0
  0
LINE
  5
A5
330
17
100
AcDbEntity
  8
0
100
AcDbLine
 10
-560.7399999999997
 20
-11.163221701332645
 30
0.0
 11
-327.3967782986672
 21
222.17999999999984
 31
0.0
  0
LINE
  5
A6
330
17
100
AcDbEntity
  8
0
100
AcDbLine
 10
-560.7399999999997
 20
-9.749008138959539
 30
0.0
 11
-328.81099186104007
 21
222.17999999999995
 31
0.0
  0
LINE
  5
A7
330
17
100
AcDbEntity
  8
0
100
AcDbLine
 10
-560.7399999999997
 20
-8.334794576586432
 30
0.0
 11
-330.2252054234134
 21
222.17999999999984
 31
0.0
  0
LINE
  5
A8
330
17
100
AcDbEntity
  8
0
100
AcDbLine
 10
-560.7399999999997
 20
-6.920581014213326
 30
0.0
 11
-331.6394189857864
 21
222.17999999999984
 31
0.0
  0
LINE
  5
A9
330
17
100
AcDbEntity
  8
0
100
AcDbLine
 10
-560.7399999999997
 20
-5.5063674518402195
 30
0.0
 11
-333.0536325481596
 21
222.17999999999984
 31
0.0
  0
LINE
  5
AA
330
17
100
AcDbEntity
  8
0
100
AcDbLine
 10
-560.7399999999996
 20
-4.092153889467113
 30
0.0
 11
-334.4678461105325
 21
222.17999999999995
 31
0.0
  0
LINE
  5
AB
330
17
100
AcDbEntity
  8
0
100
AcDbLine
 10
-560.7399999999997
 20
-2.6779403270940065
 30
0.0
 11
-335.88205967290594
 21
222.17999999999972
 31
0.0
  0
LINE
  5
AC
330
17
100
AcDbEntity
  8
0
100
AcDbLine
 10
-560.7399999999997
 20
-1.2637267647209
 30
0.0
 11
-337.2962732352787
 21
222.18000000000006
 31
0.0
  0
LINE
  5
AD
330
17
100
AcDbEntity
  8
0
100
AcDbLine
 10
-560.7399999999997
 20
0.1504867976522064
 30
0.0
 11
-338.71048679765204
 21
222.17999999999984
 31
0.0
  0
LINE
  5
AE
330
17
100
AcDbEntity
  8
0
100
AcDbLine
 10
-560.7399999999997
 20
1.5647003600253129
 30
0.0
 11
-340.1247003600249
 21
222.17999999999995
 31
0.0
  0
LINE
  5
AF
330
17
100
AcDbEntity
  8
0
100
AcDbLine
 10
-560.7399999999997
 20
2.9789139223984193
 30
0.0
 11
-341.53891392239814
 21
222.17999999999995
 31
0.0
  0
LINE
  5
B0
330
17
100
AcDbEntity
  8
0
100
AcDbLine
 10
-560.7399999999997
 20
4.393127484771526
 30
0.0
 11
-342.95312748477113
 21
222.17999999999995
 31
0.0
  0
LINE
  5
B1
330
17
100
AcDbEntity
  8
0
100
AcDbLine
 10
-560.7399999999997
 20
5.807341047144632
 30
0.0
 11
-344.36734104714446
 21
222.17999999999984
 31
0.0
  0
LINE
  5
B2
330
17
100
AcDbEntity
  8
0
100
AcDbLine
 10
-560.7399999999996
 20
7.221554609517739
 30
0.0
 11
-345.78155460951734
 21
222.17999999999995
 31
0.0
  0
LINE
  5
B3
330
17
100
AcDbEntity
  8
0
100
AcDbLine
 10
-560.7399999999997
 20
8.635768171890845
 30
0.0
 11
-347.1957681718907
 21
222.17999999999984
 31
0.0
  0
LINE
  5
B4
330
17
100
AcDbEntity
  8
0
100
AcDbLine
 10
-560.7399999999997
 20
10.049981734263952
 30
0.0
 11
-348.60998173426367
 21
222.17999999999995
 31
0.0
  0
LINE
  5
B5
330
17
100
AcDbEntity
  8
0
100
AcDbLine
 10
-560.7399999999996
 20
11.464195296637172
 30
0.0
 11
-350.0241952966369
 21
222.17999999999984
 31
0.0
  0
LINE
  5
B6
330
17
100
AcDbEntity
  8
0
100
AcDbLine
 10
-560.7399999999997
 20
12.878408859010051
 30
0.0
 11
-351.43840885900977
 21
222.17999999999984
 31
0.0
  0
LINE
  5
B7
330
17
100
AcDbEntity
  8
0
100
AcDbLine
 10
-560.7399999999998
 20
14.292622421383044
 30
0.0
 11
-352.852622421383
 21
222.17999999999984
 31
0.0
  0
LINE
  5
B8
330
17
100
AcDbEntity
  8
0
100
AcDbLine
 10
-560.7399999999997
 20
15.70683598375615
 30
0.0
 11
-354.266835983756
 21
222.17999999999984
 31
0.0
  0
LINE
  5
B9
330
17
100
AcDbEntity
  8
0
100
AcDbLine
 10
-560.7399999999997
 20
17.12104954612937
 30
0.0
 11
-355.6810495461291
 21
222.17999999999995
 31
0.0
  0
LINE
  5
BA
330
17
100
AcDbEntity
  8
0
100
AcDbLine
 10
-560.7399999999997
 20
18.535263108502363
 30
0.0
 11
-357.0952631085023
 21
222.17999999999972
 31
0.0
  0
LINE
  5
BB
330
17
100
AcDbEntity
  8
0
100
AcDbLine
 10
-560.7399999999997
 20
19.94947667087547
 30
0.0
 11
-358.5094766708751
 21
222.17999999999995
 31
0.0
  0
LINE
  5
BC
330
17
100
AcDbEntity
  8
0
100
AcDbLine
 10
-560.7399999999997
 20
21.363690233248576
 30
0.0
 11
-359.9236902332484
 21
222.17999999999984
 31
0.0
  0
LINE
  5
BD
330
17
100
AcDbEntity
  8
0
100
AcDbLine
 10
-560.7399999999997
 20
22.777903795621683
 30
0.0
 11
-361.3379037956214
 21
222.17999999999984
 31
0.0
  0
LINE
  5
BE
330
17
100
AcDbEntity
  8
0
100
AcDbLine
 10
-560.7399999999997
 20
24.19211735799479
 30
0.0
 11
-362.7521173579946
 21
222.17999999999984
 31
0.0
  0
LINE
  5
BF
330
17
100
AcDbEntity
  8
0
100
AcDbLine
 10
-560.7399999999996
 20
25.606330920367895
 30
0.0
 11
-364.1663309203675
 21
222.17999999999995
 31
0.0
  0
LINE
  5
C0
330
17
100
AcDbEntity
  8
0
100
AcDbLine
 10
-560.7399999999997
 20
27.020544482741002
 30
0.0
 11
-365.58054448274095
 21
222.17999999999972
 31
0.0
  0
LINE
  5
C1
330
17
100
AcDbEntity
  8
0
100
AcDbLine
 10
-560.7399999999997
 20
28.43475804511411
 30
0.0
 11
-366.9947580451137
 21
222.17999999999995
 31
0.0
  0
LINE
  5
C2
330
17
100
AcDbEntity
  8
0
100
AcDbLine
 10
-560.7399999999997
 20
29.848971607487215
 30
0.0
 11
-368.40897160748716
 21
222.17999999999972
 31
0.0
  0
LINE
  5
C3
330
17
100
AcDbEntity
  8
0
100
AcDbLine
 10
-560.7399999999997
 20
31.26318516986032
 30
0.0
 11
-369.82318516986004
 21
222.17999999999995
 31
0.0
  0
LINE
  5
C4
330
17
100
AcDbEntity
  8
0
100
AcDbLine
 10
-560.7399999999997
 20
32.67739873223343
 30
0.0
 11
-371.23739873223326
 21
222.17999999999984
 31
0.0
  0
LINE
  5
C5
330
17
100
AcDbEntity
  8
0
100
AcDbLine
 10
-560.7399999999997
 20
34.091612294606534
 30
0.0
 11
-372.65161229460614
 21
222.17999999999995
 31
0.0
  0
LINE
  5
C6
330
17
100
AcDbEntity
  8
0
100
AcDbLine
 10
-560.7399999999998
 20
35.50582585697953
 30
0.0
 11
-374.0658258569795
 21
222.17999999999984
 31
0.0
  0
LINE
  5
C7
330
17
100
AcDbEntity
  8
0
100
AcDbLine
 10
-560.7399999999996
 20
36.92003941935286
 30
0.0
 11
-375.48003941935235
 21
222.17999999999995
 31
0.0
  0
LINE
  5
C8
330
17
100
AcDbEntity
  8
0
100
AcDbLine
 10
-560.7399999999997
 20
38.334252981725854
 30
0.0
 11
-376.8942529817257
 21
222.17999999999984
 31
0.0
  0
LINE
  5
C9
330
17
100
AcDbEntity
  8
0
100
AcDbLine
 10
-560.7399999999996
 20
39.74846654409885
 30
0.0
 11
-378.3084665440987
 21
222.17999999999984
 31
0.0
  0
LINE
  5
CA
330
17
100
AcDbEntity
  8
0
100
AcDbLine
 10
-560.7399999999997
 20
41.16268010647207
 30
0.0
 11
-379.7226801064719
 21
222.17999999999984
 31
0.0
  0
LINE
  5
CB
330
17
100
AcDbEntity
  8
0
100
AcDbLine
 10
-560.7399999999997
 20
42.576893668845
 30
0.0
 11
-381.1368936688448
 21
222.1799999999999
 31
0.0
  0
LINE
  5
CC
330
17
100
AcDbEntity
  8
0
100
AcDbLine
 10
-560.7399999999997
 20
43.99110723121822
 30
0.0
 11
-382.5511072312181
 21
222.17999999999978
 31
0.0
  0
LINE
  5
CD
330
17
100
AcDbEntity
  8
0
100
AcDbLine
 10
-560.7399999999997
 20
45.405320793591216
 30
0.0
 11
-383.965320793591
 21
222.1799999999999
 31
0.0
  0
LINE
  5
CE
330
17
100
AcDbEntity
  8
0
100
AcDbLine
 10
-560.7399999999996
 20
46.819534355964265
 30
0.0
 11
-385.379534355964
 21
222.17999999999995
 31
0.0
  0
LINE
  5
CF
330
17
100
AcDbEntity
  8
0
100
AcDbLine
 10
-560.7399999999997
 20
48.23374791833737
 30
0.0
 11
-386.7937479183373
 21
222.17999999999972
 31
0.0
  0
LINE
  5
D0
330
17
100
AcDbEntity
  8
0
100
AcDbLine
 10
-560.7399999999997
 20
49.64796148071048
 30
0.0
 11
-388.2079614807102
 21
222.17999999999995
 31
0.0
  0
LINE
  5
D1
330
17
100
AcDbEntity
  8
0
100
AcDbLine
 10
-560.7399999999997
 20
51.062175043083585
 30
0.0
 11
-389.6221750430834
 21
222.17999999999984
 31
0.0
  0
LINE
  5
D2
330
17
100
AcDbEntity
  8
0
100
AcDbLine
 10
-560.7399999999997
 20
52.47638860545669
 30
0.0
 11
-391.0363886054564
 21
222.17999999999984
 31
0.0
  0
LINE
  5
D3
330
17
100
AcDbEntity
  8
0
100
AcDbLine
 10
-560.7399999999997
 20
53.8906021678298
 30
0.0
 11
-392.45060216782963
 21
222.17999999999984
 31
0.0
  0
LINE
  5
D4
330
17
100
AcDbEntity
  8
0
100
AcDbLine
 10
-560.7399999999996
 20
55.30481573020302
 30
0.0
 11
-393.8648157302025
 21
222.17999999999995
 31
0.0
  0
LINE
  5
D5
330
17
100
AcDbEntity
  8
0
100
AcDbLine
 10
-560.7399999999997
 20
56.71902929257601
 30
0.0
 11
-395.27902929257596
 21
222.17999999999972
 31
0.0
  0
LINE
  5
D6
330
17
100
AcDbEntity
  8
0
100
AcDbLine
 10
-560.7399999999996
 20
58.13324285494912
 30
0.0
 11
-396.6932428549487
 21
222.17999999999995
 31
0.0
  0
LINE
  5
D7
330
17
100
AcDbEntity
  8
0
100
AcDbLine
 10
-560.7399999999997
 20
59.54745641732222
 30
0.0
 11
-398.10745641732206
 21
222.17999999999984
 31
0.0
  0
LINE
  5
D8
330
17
100
AcDbEntity
  8
0
100
AcDbLine
 10
-560.7399999999997
 20
60.96166997969533
 30
0.0
 11
-399.52166997969505
 21
222.17999999999995
 31
0.0
  0
LINE
  5
D9
330
17
100
AcDbEntity
  8
0
100
AcDbLine
 10
-560.7399999999997
 20
62.375883542068436
 30
0.0
 11
-400.93588354206827
 21
222.17999999999984
 31
0.0
  0
LINE
  5
DA
330
17
100
AcDbEntity
  8
0
100
AcDbLine
 10
-560.7399999999997
 20
63.790097104441486
 30
0.0
 11
-402.35009710444126
 21
222.1799999999999
 31
0.0
  0
LINE
  5
DB
330
17
100
AcDbEntity
  8
0
100
AcDbLine
 10
-560.7399999999998
 20
65.20431066681448
 30
0.0
 11
-403.76431066681437
 21
222.1799999999999
 31
0.0
  0
LINE
  5
DC
330
17
100
AcDbEntity
  8
0
100
AcDbLine
 10
-560.7399999999997
 20
66.6185242291877
 30
0.0
 11
-405.17852422918736
 21
222.1799999999999
 31
0.0
  0
LINE
  5
DD
330
17
100
AcDbEntity
  8
0
100
AcDbLine
 10
-560.7399999999997
 20
68.0327377915608
 30
0.0
 11
-406.5927377915606
 21
222.1799999999999
 31
0.0
  0
LINE
  5
DE
330
17
100
AcDbEntity
  8
0
100
AcDbLine
 10
-560.7399999999997
 20
69.44695135393391
 30
0.0
 11
-408.0069513539337
 21
222.17999999999978
 31
0.0
  0
LINE
  5
DF
330
17
100
AcDbEntity
  8
0
100
AcDbLine
 10
-560.7399999999997
 20
70.86116491630702
 30
0.0
 11
-409.4211649163068
 21
222.1799999999999
 31
0.0
  0
LINE
  5
E0
330
17
100
AcDbEntity
  8
0
100
AcDbLine
 10
-560.7399999999997
 20
72.27537847868001
 30
0.0
 11
-410.8353784786798
 21
222.1799999999999
 31
0.0
  0
LINE
  5
E1
330
17
100
AcDbEntity
  8
0
100
AcDbLine
 10
-560.7399999999997
 20
73.68959204105312
 30
0.0
 11
-412.2495920410528
 21
222.1799999999999
 31
0.0
  0
LINE
  5
E2
330
17
100
AcDbEntity
  8
0
100
AcDbLine
 10
-560.7399999999998
 20
75.10380560342605
 30
0.0
 11
-413.663805603426
 21
222.17999999999984
 31
0.0
  0
LINE
  5
E3
330
17
100
AcDbEntity
  8
0
100
AcDbLine
 10
-560.7399999999996
 20
76.51801916579927
 30
0.0
 11
-415.078019165799
 21
222.17999999999984
 31
0.0
  0
LINE
  5
E4
330
17
100
AcDbEntity
  8
0
100
AcDbLine
 10
-560.7399999999997
 20
77.93223272817238
 30
0.0
 11
-416.4922327281722
 21
222.17999999999984
 31
0.0
  0
LINE
  5
E5
330
17
100
AcDbEntity
  8
0
100
AcDbLine
 10
-560.7399999999997
 20
79.34644629054537
 30
0.0
 11
-417.9064462905452
 21
222.17999999999995
 31
0.0
  0
LINE
  5
E6
330
17
100
AcDbEntity
  8
0
100
AcDbLine
 10
-560.7399999999997
 20
80.7606598529186
 30
0.0
 11
-419.32065985291854
 21
222.17999999999972
 31
0.0
  0
LINE
  5
E7
330
17
100
AcDbEntity
  8
0
100
AcDbLine
 10
-560.7399999999997
 20
82.1748734152917
 30
0.0
 11
-420.7348734152913
 21
222.18000000000006
 31
0.0
  0
LINE
  5
E8
330
17
100
AcDbEntity
  8
0
100
AcDbLine
 10
-560.7399999999997
 20
83.5890869776648
 30
0.0
 11
-422.14908697766464
 21
222.17999999999984
 31
0.0
  0
LINE
  5
E9
330
17
100
AcDbEntity
  8
0
100
AcDbLine
 10
-560.7399999999997
 20
85.00330054003791
 30
0.0
 11
-423.5633005400375
 21
222.17999999999995
 31
0.0
  0
LINE
  5
EA
330
17
100
AcDbEntity
  8
0
100
AcDbLine
 10
-560.7399999999997
 20
86.41751410241102
 30
0.0
 11
-424.97751410241074
 21
222.17999999999995
 31
0.0
  0
LINE
  5
EB
330
17
100
AcDbEntity
  8
0
100
AcDbLine
 10
-560.7399999999997
 20
87.83172766478413
 30
0.0
 11
-426.39172766478373
 21
222.17999999999995
 31
0.0
  0
LINE
  5
EC
330
17
100
AcDbEntity
  8
0
100
AcDbLine
 10
-560.7399999999997
 20
89.24594122715723
 30
0.0
 11
-427.80594122715706
 21
222.17999999999984
 31
0.0
  0
LINE
  5
ED
330
17
100
AcDbEntity
  8
0
100
AcDbLine
 10
-560.7399999999996
 20
90.66015478953034
 30
0.0
 11
-429.22015478952994
 21
222.17999999999995
 31
0.0
  0
LINE
  5
EE
330
17
100
AcDbEntity
  8
0
100
AcDbLine
 10
-560.7399999999997
 20
92.07436835190344
 30
0.0
 11
-430.6343683519033
 21
222.17999999999984
 31
0.0
  0
LINE
  5
EF
330
17
100
AcDbEntity
  8
0
100
AcDbLine
 10
-560.7399999999997
 20
93.48858191427655
 30
0.0
 11
-432.04858191427627
 21
222.17999999999995
 31
0.0
  0
LINE
  5
F0
330
17
100
AcDbEntity
  8
0
100
AcDbLine
 10
-560.7399999999997
 20
94.9027954766496
 30
0.0
 11
-433.4627954766494
 21
222.1799999999999
 31
0.0
  0
LINE
  5
F1
330
17
100
AcDbEntity
  8
0
100
AcDbLine
 10
-560.7399999999997
 20
96.3170090390226
 30
0.0
 11
-434.87700903902237
 21
222.1799999999999
 31
0.0
  0
LINE
  5
F2
330
17
100
AcDbEntity
  8
0
100
AcDbLine
 10
-560.7399999999997
 20
97.73122260139581
 30
0.0
 11
-436.2912226013956
 21
222.1799999999999
 31
0.0
  0
LINE
  5
F3
330
17
100
AcDbEntity
  8
0
100
AcDbLine
 10
-560.7399999999997
 20
99.1454361637688
 30
0.0
 11
-437.7054361637686
 21
222.1799999999999
 31
0.0
  0
LINE
  5
F4
330
17
100
AcDbEntity
  8
0
100
AcDbLine
 10
-560.7399999999997
 20
100.55964972614203
 30
0.0
 11
-439.1196497261418
 21
222.1799999999999
 31
0.0
  0
LINE
  5
F5
330
17
100
AcDbEntity
  8
0
100
AcDbLine
 10
-560.7399999999996
 20
101.97386328851508
 30
0.0
 11
-440.5338632885149
 21
222.17999999999972
 31
0.0
  0
LINE
  5
F6
330
17
100
AcDbEntity
  8
0
100
AcDbLine
 10
-560.7399999999997
 20
103.38807685088807
 30
0.0
 11
-441.9480768508878
 21
222.17999999999995
 31
0.0
  0
LINE
  5
F7
330
17
100
AcDbEntity
  8
0
100
AcDbLine
 10
-560.7399999999998
 20
104.80229041326106
 30
0.0
 11
-443.362290413261
 21
222.17999999999984
 31
0.0
  0
LINE
  5
F8
330
17
100
AcDbEntity
  8
0
100
AcDbLine
 10
-560.7399999999996
 20
106.2165039756344
 30
0.0
 11
-444.776503975634
 21
222.17999999999984
 31
0.0
  0
LINE
  5
F9
330
17
100
AcDbEntity
  8
0
100
AcDbLine
 10
-560.7399999999997
 20
107.63071753800739
 30
0.0
 11
-446.1907175380072
 21
222.17999999999984
 31
0.0
  0
LINE
  5
FA
330
17
100
AcDbEntity
  8
0
100
AcDbLine
 10
-560.7399999999997
 20
109.0449311003805
 30
0.0
 11
-447.6049311003801
 21
222.17999999999995
 31
0.0
  0
LINE
  5
FB
330
17
100
AcDbEntity
  8
0
100
AcDbLine
 10
-560.7399999999997
 20
110.4591446627536
 30
0.0
 11
-449.01914466275355
 21
222.17999999999972
 31
0.0
  0
LINE
  5
FC
330
17
100
AcDbEntity
  8
0
100
AcDbLine
 10
-560.7399999999996
 20
111.87335822512671
 30
0.0
 11
-450.4333582251263
 21
222.18000000000006
 31
0.0
  0
LINE
  5
FD
330
17
100
AcDbEntity
  8
0
100
AcDbLine
 10
-560.7399999999997
 20
113.28757178749981
 30
0.0
 11
-451.84757178749976
 21
222.17999999999972
 31
0.0
  0
LINE
  5
FE
330
17
100
AcDbEntity
  8
0
100
AcDbLine
 10
-560.7399999999997
 20
114.70178534987292
 30
0.0
 11
-453.26178534987264
 21
222.17999999999995
 31
0.0
  0
LINE
  5
FF
330
17
100
AcDbEntity
  8
0
100
AcDbLine
 10
-560.7399999999997
 20
116.11599891224603
 30
0.0
 11
-454.67599891224575
 21
222.17999999999995
 31
0.0
  0
LINE
  5
100
330
17
100
AcDbEntity
  8
0
100
AcDbLine
 10
-560.7399999999997
 20
117.53021247461913
 30
0.0
 11
-456.09021247461874
 21
222.17999999999995
 31
0.0
  0
LINE
  5
101
330
17
100
AcDbEntity
  8
0
100
AcDbLine
 10
-560.7399999999997
 20
118.94442603699224
 30
0.0
 11
-457.5044260369921
 21
222.17999999999984
 31
0.0
  0
LINE
  5
102
330
17
100
AcDbEntity
  8
0
100
AcDbLine
 10
-560.7399999999996
 20
120.35863959936535
 30
0.0
 11
-458.91863959936495
 21
222.17999999999995
 31
0.0
  0
LINE
  5
103
330
17
100
AcDbEntity
  8
0
100
AcDbLine
 10
-560.7399999999997
 20
121.77285316173845
 30
0.0
 11
-460.3328531617383
 21
222.17999999999984
 31
0.0
  0
LINE
  5
104
330
17
100
AcDbEntity
  8
0
100
AcDbLine
 10
-560.7399999999996
 20
123.1870667241115
 30
0.0
 11
-461.7470667241113
 21
222.1799999999999
 31
0.0
  0
LINE
  5
105
330
17
100
AcDbEntity
  8
0
100
AcDbLine
 10
-560.7399999999997
 20
124.60128028648461
 30
0.0
 11
-463.1612802864844
 21
222.1799999999999
 31
0.0
  0
LINE
  5
106
330
17
100
AcDbEntity
  8
0
100
AcDbLine
 10
-560.7399999999997
 20
126.0154938488576
 30
0.0
 11
-464.5754938488574
 21
222.1799999999999
 31
0.0
  0
LINE
  5
107
330
17
100
AcDbEntity
  8
0
100
AcDbLine
 10
-560.7399999999997
 20
127.42970741123082
 30
0.0
 11
-465.9897074112307
 21
222.17999999999978
 31
0.0
  0
LINE
  5
108
330
17
100
AcDbEntity
  8
0
100
AcDbLine
 10
-560.7399999999997
 20
128.84392097360382
 30
0.0
 11
-467.4039209736036
 21
222.1799999999999
 31
0.0
  0
LINE
  5
109
330
17
100
AcDbEntity
  8
0
100
AcDbLine
 10
-560.7399999999997
 20
130.25813453597698
 30
0.0
 11
-468.8181345359767
 21
222.17999999999995
 31
0.0
  0
LINE
  5
10A
330
17
100
AcDbEntity
  8
0
100
AcDbLine
 10
-560.7399999999997
 20
131.67234809834997
 30
0.0
 11
-470.2323480983499
 21
222.17999999999972
 31
0.0
  0
LINE
  5
10B
330
17
100
AcDbEntity
  8
0
100
AcDbLine
 10
-560.7399999999997
 20
133.08656166072308
 30
0.0
 11
-471.6465616607228
 21
222.17999999999995
 31
0.0
  0
LINE
  5
10C
330
17
100
AcDbEntity
  8
0
100
AcDbLine
 10
-560.7399999999997
 20
134.50077522309618
 30
0.0
 11
-473.060775223096
 21
222.17999999999984
 31
0.0
  0
LINE
  5
10D
330
17
100
AcDbEntity
  8
0
100
AcDbLine
 10
-560.7399999999997
 20
135.9149887854693
 30
0.0
 11
-474.474988785469
 21
222.17999999999984
 31
0.0
  0
LINE
  5
10E
330
17
100
AcDbEntity
  8
0
100
AcDbLine
 10
-560.7399999999997
 20
137.3292023478424
 30
0.0
 11
-475.88920234784223
 21
222.17999999999984
 31
0.0
  0
LINE
  5
10F
330
17
100
AcDbEntity
  8
0
100
AcDbLine
 10
-560.7399999999997
 20
138.7434159102155
 30
0.0
 11
-477.3034159102151
 21
222.17999999999995
 31
0.0
  0
LINE
  5
110
330
17
100
AcDbEntity
  8
0
100
AcDbLine
 10
-560.7399999999997
 20
140.1576294725886
 30
0.0
 11
-478.71762947258856
 21
222.17999999999972
 31
0.0
  0
LINE
  5
111
330
17
100
AcDbEntity
  8
0
100
AcDbLine
 10
-560.7399999999996
 20
141.57184303496172
 30
0.0
 11
-480.1318430349613
 21
222.17999999999995
 31
0.0
  0
LINE
  5
112
330
17
100
AcDbEntity
  8
0
100
AcDbLine
 10
-560.7399999999997
 20
142.98605659733482
 30
0.0
 11
-481.54605659733477
 21
222.17999999999972
 31
0.0
  0
LINE
  5
113
330
17
100
AcDbEntity
  8
0
100
AcDbLine
 10
-560.7399999999997
 20
144.40027015970793
 30
0.0
 11
-482.96027015970765
 21
222.17999999999995
 31
0.0
  0
LINE
  5
114
330
17
100
AcDbEntity
  8
0
100
AcDbLine
 10
-560.7399999999997
 20
145.81448372208104
 30
0.0
 11
-484.37448372208087
 21
222.17999999999984
 31
0.0
  0
LINE
  5
115
330
17
100
AcDbEntity
  8
0
100
AcDbLine
 10
-560.7399999999997
 20
147.22869728445414
 30
0.0
 11
-485.78869728445386
 21
222.17999999999995
 31
0.0
  0
LINE
  5
116
330
17
100
AcDbEntity
  8
0
100
AcDbLine
 10
-560.7399999999998
 20
148.64291084682714
 30
0.0
 11
-487.2029108468271
 21
222.17999999999984
 31
0.0
  0
LINE
  5
117
330
17
100
AcDbEntity
  8
0
100
AcDbLine
 10
-560.7399999999997
 20
150.05712440920036
 30
0.0
 11
-488.61712440919996
 21
222.17999999999995
 31
0.0
  0
LINE
  5
118
330
17
100
AcDbEntity
  8
0
100
AcDbLine
 10
-560.7399999999997
 20
151.4713379715734
 30
0.0
 11
-490.0313379715732
 21
222.1799999999999
 31
0.0
  0
LINE
  5
119
330
17
100
AcDbEntity
  8
0
100
AcDbLine
 10
-560.7399999999997
 20
152.8855515339464
 30
0.0
 11
-491.4455515339463
 21
222.17999999999978
 31
0.0
  0
LINE
  5
11A
330
17
100
AcDbEntity
  8
0
100
AcDbLine
 10
-560.7399999999997
 20
154.29976509631962
 30
0.0
 11
-492.8597650963194
 21
222.1799999999999
 31
0.0
  0
LINE
  5
11B
330
17
100
AcDbEntity
  8
0
100
AcDbLine
 10
-560.7399999999998
 20
155.7139786586925
 30
0.0
 11
-494.2739786586924
 21
222.1799999999999
 31
0.0
  0
LINE
  5
11C
330
17
100
AcDbEntity
  8
0
100
AcDbLine
 10
-560.7399999999997
 20
157.12819222106583
 30
0.0
 11
-495.6881922210657
 21
222.17999999999978
 31
0.0
  0
LINE
  5
11D
330
17
100
AcDbEntity
  8
0
100
AcDbLine
 10
-560.7399999999997
 20
158.54240578343877
 30
0.0
 11
-497.1024057834386
 21
222.17999999999984
 31
0.0
  0
LINE
  5
11E
330
17
100
AcDbEntity
  8
0
100
AcDbLine
 10
-560.7399999999997
 20
159.95661934581187
 30
0.0
 11
-498.5166193458116
 21
222.17999999999984
 31
0.0
  0
LINE
  5
11F
330
17
100
AcDbEntity
  8
0
100
AcDbLine
 10
-560.7399999999997
 20
161.37083290818498
 30
0.0
 11
-499.9308329081848
 21
222.17999999999984
 31
0.0
  0
LINE
  5
120
330
17
100
AcDbEntity
  8
0
100
AcDbLine
 10
-560.7399999999996
 20
162.7850464705581
 30
0.0
 11
-501.3450464705578
 21
222.17999999999995
 31
0.0
  0
LINE
  5
121
330
17
100
AcDbEntity
  8
0
100
AcDbLine
 10
-560.7399999999997
 20
164.1992600329312
 30
0.0
 11
-502.75926003293114
 21
222.17999999999972
 31
0.0
  0
LINE
  5
122
330
17
100
AcDbEntity
  8
0
100
AcDbLine
 10
-560.7399999999997
 20
165.6134735953043
 30
0.0
 11
-504.17347359530413
 21
222.17999999999984
 31
0.0
  0
LINE
  5
123
330
17
100
AcDbEntity
  8
0
100
AcDbLine
 10
-560.7399999999997
 20
167.0276871576774
 30
0.0
 11
-505.58768715767724
 21
222.17999999999984
 31
0.0
  0
LINE
  5
124
330
17
100
AcDbEntity
  8
0
100
AcDbLine
 10
-560.7399999999997
 20
168.4419007200505
 30
0.0
 11
-507.0019007200501
 21
222.17999999999995
 31
0.0
  0
LINE
  5
125
330
17
100
AcDbEntity
  8
0
100
AcDbLine
 10
-560.7399999999998
 20
169.8561142824235
 30
0.0
 11
-508.41611428242334
 21
222.17999999999995
 31
0.0
  0
LINE
  5
126
330
17
100
AcDbEntity
  8
0
100
AcDbLine
 10
-560.7399999999996
 20
171.27032784479673
 30
0.0
 11
-509.83032784479633
 21
222.17999999999995
 31
0.0
  0
LINE
  5
127
330
17
100
AcDbEntity
  8
0
100
AcDbLine
 10
-560.7399999999997
 20
172.68454140716983
 30
0.0
 11
-511.24454140716966
 21
222.17999999999984
 31
0.0
  0
LINE
  5
128
330
17
100
AcDbEntity
  8
0
100
AcDbLine
 10
-560.7399999999997
 20
174.09875496954282
 30
0.0
 11
-512.6587549695425
 21
222.17999999999995
 31
0.0
  0
LINE
  5
129
330
17
100
AcDbEntity
  8
0
100
AcDbLine
 10
-560.7399999999997
 20
175.51296853191604
 30
0.0
 11
-514.0729685319159
 21
222.17999999999984
 31
0.0
  0
LINE
  5
12A
330
17
100
AcDbEntity
  8
0
100
AcDbLine
 10
-560.7399999999997
 20
176.92718209428915
 30
0.0
 11
-515.4871820942889
 21
222.17999999999995
 31
0.0
  0
LINE
  5
12B
330
17
100
AcDbEntity
  8
0
100
AcDbLine
 10
-560.7399999999997
 20
178.34139565666226
 30
0.0
 11
-516.9013956566621
 21
222.17999999999984
 31
0.0
  0
LINE
  5
12C
330
17
100
AcDbEntity
  8
0
100
AcDbLine
 10
-560.7399999999997
 20
179.7556092190352
 30
0.0
 11
-518.315609219035
 21
222.1799999999999
 31
0.0
  0
LINE
  5
12D
330
17
100
AcDbEntity
  8
0
100
AcDbLine
 10
-560.7399999999997
 20
181.1698227814084
 30
0.0
 11
-519.7298227814082
 21
222.1799999999999
 31
0.0
  0
LINE
  5
12E
330
17
100
AcDbEntity
  8
0
100
AcDbLine
 10
-560.7399999999997
 20
182.5840363437814
 30
0.0
 11
-521.1440363437812
 21
222.1799999999999
 31
0.0
  0
LINE
  5
12F
330
17
100
AcDbEntity
  8
0
100
AcDbLine
 10
-560.7399999999997
 20
183.99824990615463
 30
0.0
 11
-522.5582499061544
 21
222.1799999999999
 31
0.0
  0
LINE
  5
130
330
17
100
AcDbEntity
  8
0
100
AcDbLine
 10
-560.7399999999997
 20
185.41246346852762
 30
0.0
 11
-523.9724634685274
 21
222.1799999999999
 31
0.0
  0
LINE
  5
131
330
17
100
AcDbEntity
  8
0
100
AcDbLine
 10
-560.7399999999997
 20
186.82667703090067
 30
0.0
 11
-525.3866770309004
 21
222.17999999999995
 31
0.0
  0
LINE
  5
132
330
17
100
AcDbEntity
  8
0
100
AcDbLine
 10
-560.7399999999997
 20
188.24089059327378
 30
0.0
 11
-526.8008905932736
 21
222.17999999999984
 31
0.0
  0
LINE
  5
133
330
17
100
AcDbEntity
  8
0
100
AcDbLine
 10
-560.7399999999997
 20
189.65510415564688
 30
0.0
 11
-528.2151041556466
 21
222.17999999999984
 31
0.0
  0
LINE
  5
134
330
17
100
AcDbEntity
  8
0
100
AcDbLine
 10
-560.7399999999997
 20
191.06931771802
 30
0.0
 11
-529.6293177180198
 21
222.17999999999984
 31
0.0
  0
LINE
  5
135
330
17
100
AcDbEntity
  8
0
100
AcDbLine
 10
-560.7399999999996
 20
192.4835312803931
 30
0.0
 11
-531.0435312803927
 21
222.17999999999995
 31
0.0
  0
LINE
  5
136
330
17
100
AcDbEntity
  8
0
100
AcDbLine
 10
-560.7399999999997
 20
193.8977448427662
 30
0.0
 11
-532.4577448427661
 21
222.17999999999972
 31
0.0
  0
LINE
  5
137
330
17
100
AcDbEntity
  8
0
100
AcDbLine
 10
-560.7399999999996
 20
195.3119584051393
 30
0.0
 11
-533.8719584051389
 21
222.18000000000006
 31
0.0
  0
LINE
  5
138
330
17
100
AcDbEntity
  8
0
100
AcDbLine
 10
-560.7399999999997
 20
196.7261719675124
 30
0.0
 11
-535.2861719675124
 21
222.17999999999972
 31
0.0
  0
LINE
  5
139
330
17
100
AcDbEntity
  8
0
100
AcDbLine
 10
-560.7399999999997
 20
198.14038552988552
 30
0.0
 11
-536.7003855298852
 21
222.17999999999995
 31
0.0
  0
LINE
  5
13A
330
17
100
AcDbEntity
  8
0
100
AcDbLine
 10
-560.7399999999998
 20
199.5545990922585
 30
0.0
 11
-538.1145990922583
 21
222.17999999999995
 31
0.0
  0
LINE
  5
13B
330
17
100
AcDbEntity
  8
0
100
AcDbLine
 10
-560.7399999999996
 20
200.96881265463185
 30
0.0
 11
-539.5288126546313
 21
222.17999999999995
 31
0.0
  0
LINE
  5
13C
330
17
100
AcDbEntity
  8
0
100
AcDbLine
 10
-560.7399999999997
 20
202.38302621700484
 30
0.0
 11
-540.9430262170047
 21
222.17999999999984
 31
0.0
  0
LINE
  5
13D
330
17
100
AcDbEntity
  8
0
100
AcDbLine
 10
-560.7399999999997
 20
203.79723977937795
 30
0.0
 11
-542.3572397793776
 21
222.17999999999995
 31
0.0
  0
LINE
  5
13E
330
17
100
AcDbEntity
  8
0
100
AcDbLine
 10
-560.7399999999997
 20
205.21145334175105
 30
0.0
 11
-543.7714533417509
 21
222.17999999999984
 31
0.0
  0
LINE
  5
13F
330
17
100
AcDbEntity
  8
0
100
AcDbLine
 10
-560.7399999999996
 20
206.62566690412416
 30
0.0
 11
-545.1856669041239
 21
222.17999999999995
 31
0.0
  0
LINE
  5
140
330
17
100
AcDbEntity
  8
0
100
AcDbLine
 10
-560.7399999999997
 20
208.0398804664972
 30
0.0
 11
-546.599880466497
 21
222.1799999999999
 31
0.0
  0
LINE
  5
141
330
17
100
AcDbEntity
  8
0
100
AcDbLine
 10
-560.7399999999998
 20
209.4540940288701
 30
0.0
 11
-548.01409402887
 21
222.1799999999999
 31
0.0
  0
LINE
  5
142
330
17
100
AcDbEntity
  8
0
100
AcDbLine
 10
-560.7399999999997
 20
210.86830759124342
 30
0.0
 11
-549.4283075912432
 21
222.1799999999999
 31
0.0
  0
LINE
  5
143
330
17
100
AcDbEntity
  8
0
100
AcDbLine
 10
-560.7399999999997
 20
212.28252115361641
 30
0.0
 11
-550.8425211536162
 21
222.1799999999999
 31
0.0
  0
LINE
  5
144
330
17
100
AcDbEntity
  8
0
100
AcDbLine
 10
-560.7399999999998
 20
213.69673471598952
 30
0.0
 11
-552.2567347159894
 21
222.1799999999999
 31
0.0
  0
LINE
  5
145
330
17
100
AcDbEntity
  8
0
100
AcDbLine
 10
-560.7399999999997
 20
215.11094827836257
 30
0.0
 11
-553.6709482783625
 21
222.17999999999972
 31
0.0
  0
LINE
  5
146
330
17
100
AcDbEntity
  8
0
100
AcDbLine
 10
-560.7399999999997
 20
216.52516184073568
 30
0.0
 11
-555.0851618407354
 21
222.17999999999995
 31
0.0
  0
LINE
  5
147
330
17
100
AcDbEntity
  8
0
100
AcDbLine
 10
-560.7399999999997
 20
217.93937540310878
 30
0.0
 11
-556.4993754031086
 21
222.17999999999984
 31
0.0
  0
LINE
  5
148
330
17
100
AcDbEntity
  8
0
100
AcDbLine
 10
-560.7399999999997
 20
219.3535889654819
 30
0.0
 11
-557.9135889654816
 21
222.17999999999984
 31
0.0
  0
LINE
  5
149
330
17
100
AcDbEntity
  8
0
100
AcDbLine
 10
-560.7399999999997
 20
220.767802527855
 30
0.0
 11
-559.3278025278548
 21
222.17999999999984
 31
0.0
  0
LWPOLYLINE
  5
14A
330
17
100
AcDbEntity
  8
0
100
AcDbPolyline
 90
5
 70
1
 10
25.127499999999987
 20
-126.95999999999994
 10
190.4399999999999
 20
-99.18749999999996
 10
35.70749999999998
 20
-3.967499999999998
 10
-13.224999999999994
 20
-93.89749999999995
 10
-142.82999999999993
 20
-39.67499999999998
  0
TEXT
  5
14B
330
17
100
AcDbEntity
  8
0
100
AcDbText
 10
111.0
 20
96.0
 30
0.0
 40
2.5
  1
holitas
100
AcDbText
  0
LINE
  5
14C
330
17
100
AcDbEntity
  8
0
100
AcDbLine
 10
109.50299999999993
 20
-234.21474999999987
 30
0.0
 11
361.9682499999998
 21
-7.604374999999996
 31
0.0
  0
LWPOLYLINE
  5
14D
330
17
100
AcDbEntity
  8
0
100
AcDbPolyline
 90
5
 70
0
 10
357.40562499999976
 20
-247.90262499999986
 10
200.75549999999987
 20
-77.56462499999995
 10
31.93837499999998
 20
-261.59049999999985
 10
229.65212499999987
 20
-348.28037499999976
 10
348.28037499999976
 20
-249.42349999999985
  0
CIRCLE
  5
14E
330
17
100
AcDbEntity
  8
0
100
AcDbCircle
 10
170.3379999999999
 20
-240.29824999999985
 30
0.0
 40
86.51626805152016
  0
ENDSEC
  0
SECTION
  2
OBJECTS
  0
DICTIONARY
  5
A
330
0
100
AcDbDictionary
281
1
  3
ACAD_COLOR
350
B
  3
ACAD_GROUP
350
C
  3
ACAD_LAYOUT
350
D
  3
ACAD_MATERIAL
350
E
  3
ACAD_MLEADERSTYLE
350
F
  3
ACAD_MLINESTYLE
350
10
  3
ACAD_PLOTSETTINGS
350
11
  3
ACAD_PLOTSTYLENAME
350
12
  3
ACAD_SCALELIST
350
14
  3
ACAD_TABLESTYLE
350
15
  3
ACAD_VISUALSTYLE
350
16
  3
EZDXF_META
350
2D
  0
DICTIONARY
  5
B
330
A
100
AcDbDictionary
281
1
  0
DICTIONARY
  5
C
330
A
100
AcDbDictionary
281
1
  0
DICTIONARY
  5
D
330
A
100
AcDbDictionary
281
1
  3
Model
350
1A
  3
Layout1
350
1E
  0
DICTIONARY
  5
E
330
A
100
AcDbDictionary
281
1
  3
ByBlock
350
1F
  3
ByLayer
350
20
  3
Global
350
21
  0
DICTIONARY
  5
F
330
A
100
AcDbDictionary
281
1
  3
Standard
350
2C
  0
DICTIONARY
  5
10
330
A
100
AcDbDictionary
281
1
  3
Standard
350
22
  0
DICTIONARY
  5
11
330
A
100
AcDbDictionary
281
1
  0
ACDBDICTIONARYWDFLT
  5
12
330
A
100
AcDbDictionary
281
1
  3
Normal
350
13
100
AcDbDictionaryWithDefault
340
13
  0
ACDBPLACEHOLDER
  5
13
330
12
  0
DICTIONARY
  5
14
330
A
100
AcDbDictionary
281
1
  0
DICTIONARY
  5
15
330
A
100
AcDbDictionary
281
1
  0
DICTIONARY
  5
16
330
A
100
AcDbDictionary
281
1
  0
LAYOUT
  5
1A
330
D
100
AcDbPlotSettings
  1

  4
A3
  6

 40
7.5
 41
20.0
 42
7.5
 43
20.0
 44
420.0
 45
297.0
 46
0.0
 47
0.0
 48
0.0
 49
0.0
140
0.0
141
0.0
142
1.0
143
1.0
 70
1024
 72
1
 73
0
 74
5
  7

 75
16
 76
0
 77
2
 78
300
147
1.0
148
0.0
149
0.0
100
AcDbLayout
  1
Model
 70
1
 71
0
 10
0.0
 20
0.0
 11
420.0
 21
297.0
 12
0.0
 22
0.0
 32
0.0
 14
1e+20
 24
1e+20
 34
1e+20
 15
-1e+20
 25
-1e+20
 35
-1e+20
146
0.0
 13
0.0
 23
0.0
 33
0.0
 16
1.0
 26
0.0
 36
0.0
 17
0.0
 27
1.0
 37
0.0
 76
1
330
17
  0
LAYOUT
  5
1E
330
D
100
AcDbPlotSettings
  1

  4
A3
  6

 40
7.5
 41
20.0
 42
7.5
 43
20.0
 44
420.0
 45
297.0
 46
0.0
 47
0.0
 48
0.0
 49
0.0
140
0.0
141
0.0
142
1.0
143
1.0
 70
0
 72
1
 73
0
 74
5
  7

 75
16
 76
0
 77
2
 78
300
147
1.0
148
0.0
149
0.0
100
AcDbLayout
  1
Layout1
 70
1
 71
1
 10
0.0
 20
0.0
 11
420.0
 21
297.0
 12
0.0
 22
0.0
 32
0.0
 14
1e+20
 24
1e+20
 34
1e+20
 15
-1e+20
 25
-1e+20
 35
-1e+20
146
0.0
 13
0.0
 23
0.0
 33
0.0
 16
1.0
 26
0.0
 36
0.0
 17
0.0
 27
1.0
 37
0.0
 76
1
330
1B
  0
MATERIAL
  5
1F
102
{ACAD_REACTORS
330
E
102
}
330
E
100
AcDbMaterial
  1
ByBlock
  2

 70
0
 40
1.0
 71
1
 41
1.0
 91
-1023410177
 42
1.0
 72
1
  3

 73
1
 74
1
 75
1
 44
0.5
 73
0
 45
1.0
 46
1.0
 77
1
  4

 78
1
 79
1
170
1
 48
1.0
171
1
  6

172
1
173
1
174
1
140
1.0
141
1.0
175
1
  7

176
1
177
1
178
1
143
1.0
179
1
  8

270
1
271
1
272
1
145
1.0
146
1.0
273
1
  9

274
1
275
1
276
1
 42
1.0
 72
1
  3

 73
1
 74
1
 75
1
 94
63
  0
MATERIAL
  5
20
102
{ACAD_REACTORS
330
E
102
}
330
E
100
AcDbMaterial
  1
ByLayer
  2

 70
0
 40
1.0
 71
1
 41
1.0
 91
-1023410177
 42
1.0
 72
1
  3

 73
1
 74
1
 75
1
 44
0.5
 73
0
 45
1.0
 46
1.0
 77
1
  4

 78
1
 79
1
170
1
 48
1.0
171
1
  6

172
1
173
1
174
1
140
1.0
141
1.0
175
1
  7

176
1
177
1
178
1
143
1.0
179
1
  8

270
1
271
1
272
1
145
1.0
146
1.0
273
1
  9

274
1
275
1
276
1
 42
1.0
 72
1
  3

 73
1
 74
1
 75
1
 94
63
  0
MATERIAL
  5
21
102
{ACAD_REACTORS
330
E
102
}
330
E
100
AcDbMaterial
  1
Global
  2

 70
0
 40
1.0
 71
1
 41
1.0
 91
-1023410177
 42
1.0
 72
1
  3

 73
1
 74
1
 75
1
 44
0.5
 73
0
 45
1.0
 46
1.0
 77
1
  4

 78
1
 79
1
170
1
 48
1.0
171
1
  6

172
1
173
1
174
1
140
1.0
141
1.0
175
1
  7

176
1
177
1
178
1
143
1.0
179
1
  8

270
1
271
1
272
1
145
1.0
146
1.0
273
1
  9

274
1
275
1
276
1
 42
1.0
 72
1
  3

 73
1
 74
1
 75
1
 94
63
  0
MLINESTYLE
  5
22
102
{ACAD_REACTORS
330
10
102
}
330
10
100
AcDbMlineStyle
  2
Standard
 70
0
  3

 62
256
 51
90.0
 52
90.0
 71
2
 49
0.5
 62
256
  6
BYLAYER
 49
-0.5
 62
256
  6
BYLAYER
  0
MLEADERSTYLE
  5
2C
102
{ACAD_REACTORS
330
F
102
}
330
F
100
AcDbMLeaderStyle
179
2
170
2
171
1
172
0
 90
2
 40
0.0
 41
0.0
173
1
 91
-1056964608
 92
-2
290
1
 42
2.0
291
1
 43
8.0
  3
Standard
 44
4.0
300

342
29
174
1
175
1
176
0
178
1
 93
-1056964608
 45
4.0
292
0
297
0
 46
4.0
 94
-1056964608
 47
1.0
 49
1.0
140
1.0
294
1
141
0.0
177
0
142
1.0
295
0
296
0
143
3.75
271
0
272
9
273
9
  0
DICTIONARY
  5
2D
330
A
100
AcDbDictionary
280
1
281
1
  3
CREATED_BY_EZDXF
350
2E
  3
WRITTEN_BY_EZDXF
350
151
  0
DICTIONARYVAR
  5
2E
330
2D
100
DictionaryVariables
280
0
  1
1.4.4 @ 2026-07-04T01:51:02.602086+00:00
  0
DICTIONARYVAR
  5
151
330
2D
100
DictionaryVariables
280
0
  1
1.4.4 @ 2026-07-04T01:51:02.651102+00:00
  0
ENDSEC
  0
EOF
